<svg xmlns="http://www.w3.org/2000/svg" viewBox="0 0 30 30"><defs><style>.cls-1{fill:#07043a;}</style></defs><title>compte</title><g id="Calque_2" data-name="Calque 2"><g id="Calque_1-2" data-name="Calque 1"><path class="cls-1" d="M25.61,4.39A15,15,0,1,0,30,15,14.93,14.93,0,0,0,25.61,4.39ZM7.52,25.92a7.59,7.59,0,0,1,15,0,13.22,13.22,0,0,1-15,0Zm2.71-12.8A4.77,4.77,0,1,1,15,17.89,4.78,4.78,0,0,1,10.23,13.12ZM24,24.7a9.3,9.3,0,0,0-2.73-4.4,9.07,9.07,0,0,0-2.71-1.71,6.53,6.53,0,1,0-7.12,0A9.07,9.07,0,0,0,8.73,20.3,9.3,9.3,0,0,0,6,24.7a13.24,13.24,0,1,1,18,0Z"/></g></g></svg>