<svg xmlns="http://www.w3.org/2000/svg" viewBox="0 0 297.55 252.6"><defs><style>.cls-1{fill:none;stroke:#e4c46f;stroke-linecap:round;stroke-linejoin:round;stroke-width:5px;}</style></defs><title>couronne</title><g id="Calque_2" data-name="Calque 2"><g id="Calque_1-2" data-name="Calque 1"><path class="cls-1" d="M33.7,250.1H263.89"/><path class="cls-1" d="M263.89,193.84H33.7l-15-95.06Z"/><path class="cls-1" d="M33.7,228.08H263.89"/><path class="cls-1" d="M33.7,193.84H263.89l15-95.06Z"/><path class="cls-1" d="M263.89,193.84,148.79,28.11,33.7,193.84Z"/><path class="cls-1" d="M148.79,28.11A12.81,12.81,0,1,0,136,15.3,12.81,12.81,0,0,0,148.79,28.11Z"/><path class="cls-1" d="M285.09,98.4a10,10,0,1,0-10-10A10,10,0,0,0,285.09,98.4Z"/><path class="cls-1" d="M12.46,98.4a10,10,0,1,0-10-10A10,10,0,0,0,12.46,98.4Z"/></g></g></svg>