<svg xmlns="http://www.w3.org/2000/svg" viewBox="0 0 34.84 34.84"><defs><style>.cls-1{fill:#07043a;}</style></defs><title>instagram</title><g id="Calque_2" data-name="Calque 2"><g id="Calque_1-2" data-name="Calque 1"><path class="cls-1" d="M20.75,17.42a3.34,3.34,0,1,1-3.33-3.33A3.33,3.33,0,0,1,20.75,17.42Z"/><path class="cls-1" d="M25.22,11.52a3.33,3.33,0,0,0-1.9-1.9,5.61,5.61,0,0,0-1.86-.34c-1.05,0-1.37-.06-4-.06s-3,0-4,.06a5.61,5.61,0,0,0-1.86.34,3.33,3.33,0,0,0-1.9,1.9,5.61,5.61,0,0,0-.34,1.86c0,1-.06,1.37-.06,4s0,3,.06,4a5.61,5.61,0,0,0,.34,1.86,3.14,3.14,0,0,0,.75,1.15,3.06,3.06,0,0,0,1.15.75,5.61,5.61,0,0,0,1.86.34c1,.05,1.37.06,4,.06s3,0,4-.06a5.61,5.61,0,0,0,1.86-.34,3.35,3.35,0,0,0,1.9-1.9,5.61,5.61,0,0,0,.34-1.86c.05-1.05.06-1.37.06-4s0-3-.06-4A5.61,5.61,0,0,0,25.22,11.52Zm-7.8,11a5.14,5.14,0,1,1,5.14-5.14A5.14,5.14,0,0,1,17.42,22.56Zm5.34-9.28a1.2,1.2,0,1,1,1.2-1.2A1.2,1.2,0,0,1,22.76,13.28Z"/><path class="cls-1" d="M17.42,0A17.42,17.42,0,1,0,34.84,17.42,17.42,17.42,0,0,0,17.42,0Zm9.94,21.54A7.59,7.59,0,0,1,26.9,24,5.15,5.15,0,0,1,24,26.9a7.59,7.59,0,0,1-2.43.46c-1.06.05-1.4.06-4.12.06s-3.06,0-4.12-.06a7.53,7.53,0,0,1-2.43-.46A5.19,5.19,0,0,1,7.94,24a7.27,7.27,0,0,1-.46-2.43c-.05-1.06-.06-1.4-.06-4.12s0-3.06.06-4.12a7.27,7.27,0,0,1,.46-2.43A4.86,4.86,0,0,1,9.1,9.1a4.78,4.78,0,0,1,1.77-1.16,7.27,7.27,0,0,1,2.43-.46c1.06-.05,1.4-.06,4.12-.06s3.06,0,4.12.06A7.33,7.33,0,0,1,24,7.94a5.19,5.19,0,0,1,2.93,2.93,7.53,7.53,0,0,1,.46,2.43c.05,1.06.06,1.4.06,4.12S27.41,20.48,27.36,21.54Z"/></g></g></svg>