<svg xmlns="http://www.w3.org/2000/svg" xmlns:xlink="http://www.w3.org/1999/xlink" viewBox="0 0 262.52 102.14"><defs><style>.cls-1{fill:url(#Dégradé_sans_nom_4);}.cls-2{fill:url(#Dégradé_gold);}.cls-3{fill:#39384f;}.cls-4{fill:#333;}.cls-5,.cls-6,.cls-7,.cls-8{stroke-miterlimit:10;stroke-width:0.25px;}.cls-5{fill:url(#Dégradé_gold-2);stroke:url(#Dégradé_gold-3);}.cls-6{fill:url(#Dégradé_gold-4);stroke:url(#Dégradé_gold-5);}.cls-7{fill:url(#Dégradé_gold-6);stroke:url(#Dégradé_gold-7);}.cls-8{fill:url(#Dégradé_gold-8);stroke:url(#Dégradé_gold-9);}</style><radialGradient id="Dégradé_sans_nom_4" cx="87.37" cy="10.87" fx="226.86883140291417" r="139.56" gradientUnits="userSpaceOnUse"><stop offset="0.01" stop-color="#dec489"/><stop offset="0.23" stop-color="#f6e0a4"/><stop offset="0.71" stop-color="#e3cc97"/><stop offset="1" stop-color="#bf9a5e"/></radialGradient><linearGradient id="Dégradé_gold" x1="52" y1="58.64" x2="142.68" y2="58.64" gradientUnits="userSpaceOnUse"><stop offset="0.01" stop-color="#dec489"/><stop offset="0.23" stop-color="#f6e0a4"/><stop offset="0.46" stop-color="#d1b372"/><stop offset="0.71" stop-color="#e3cc97"/><stop offset="1" stop-color="#bf9a5e"/></linearGradient><linearGradient id="Dégradé_gold-2" x1="45.34" y1="85.71" x2="45.34" y2="27.58" xlink:href="#Dégradé_gold"/><linearGradient id="Dégradé_gold-3" x1="12.84" y1="56.64" x2="77.84" y2="56.64" xlink:href="#Dégradé_gold"/><linearGradient id="Dégradé_gold-4" x1="35.48" y1="49.97" x2="35.48" y2="47.44" xlink:href="#Dégradé_gold"/><linearGradient id="Dégradé_gold-5" x1="34.09" y1="48.7" x2="36.88" y2="48.7" xlink:href="#Dégradé_gold"/><linearGradient id="Dégradé_gold-6" x1="45.34" y1="49.97" x2="45.34" y2="47.44" xlink:href="#Dégradé_gold"/><linearGradient id="Dégradé_gold-7" x1="43.95" y1="48.7" x2="46.73" y2="48.7" xlink:href="#Dégradé_gold"/><linearGradient id="Dégradé_gold-8" x1="55.2" y1="49.97" x2="55.2" y2="47.44" xlink:href="#Dégradé_gold"/><linearGradient id="Dégradé_gold-9" x1="53.8" y1="48.7" x2="56.59" y2="48.7" xlink:href="#Dégradé_gold"/></defs><title>logotest</title><g id="Calque_2" data-name="Calque 2"><g id="Calque_1-2" data-name="Calque 1"><text/><circle class="cls-1" cx="75.84" cy="31.5" r="31.5"/><path class="cls-2" d="M97.34,17.14c23.89,0,43.34,18.62,43.34,41.5s-19.45,41.5-43.34,41.5S54,81.53,54,58.64s19.44-41.5,43.34-41.5m0-2C72.3,15.14,52,34.62,52,58.64s20.3,43.5,45.34,43.5,45.34-19.47,45.34-43.5-20.3-43.5-45.34-43.5Z"/><ellipse class="cls-3" cx="45.34" cy="58.64" rx="45.34" ry="43.5"/><path class="cls-4" d="M106,35.77a80.66,80.66,0,0,1-5.15,7.81,45.83,45.83,0,0,1-6.49,7.05,32.32,32.32,0,0,1-7.94,5.13,22.56,22.56,0,0,1-9.47,2,23.23,23.23,0,0,1-7.86-1.3,17.88,17.88,0,0,1-6.37-3.83,17.7,17.7,0,0,1-4.25-6.22,21.92,21.92,0,0,1-1.54-8.52A31.19,31.19,0,0,1,58.75,27a32.52,32.52,0,0,1,5-8.93,36.25,36.25,0,0,1,7.27-7,47.41,47.41,0,0,1,8.84-5,48.09,48.09,0,0,1,9.64-3,46.3,46.3,0,0,1,9.65-1A37,37,0,0,1,109,3.54a25.94,25.94,0,0,1,8.65,4.32,21.73,21.73,0,0,1,6.08,7.35,22.59,22.59,0,0,1,2.29,10.5,35.27,35.27,0,0,1-1.46,9.4,52.11,52.11,0,0,1-5.08,11.5q-4.2,7.32-7.28,12.47t-5.1,8.64q-2,3.5-3,5.57a8.4,8.4,0,0,0-1,3.3,2.1,2.1,0,0,0,1,1.85,5.34,5.34,0,0,0,3,.69,17.36,17.36,0,0,0,6.11-1.37,44.47,44.47,0,0,0,7.76-4.1A69.56,69.56,0,0,0,128.65,68q3.75-3.17,7.35-6.76t6.93-7.45q3.34-3.86,6.32-7.69t5.52-7.49c1.69-2.44,3.21-4.74,4.54-6.89A38.44,38.44,0,0,1,157.9,26a32.39,32.39,0,0,1-.44-5.2,24.05,24.05,0,0,1,.53-5.3,14.67,14.67,0,0,1,1.44-3.91,7.11,7.11,0,0,1,2.15-2.42,4.74,4.74,0,0,1,2.66-.83,3.9,3.9,0,0,1,2.13.57,4.76,4.76,0,0,1,1.49,1.44,6.61,6.61,0,0,1,.88,2,9.12,9.12,0,0,1,.29,2.24,18.43,18.43,0,0,1-.59,4.16,31.22,31.22,0,0,1-2.14,5.76,77.07,77.07,0,0,1-3.72,6.83q-2.39,4-5.64,8.67t-7.17,9.64q-3.93,5-8.38,9.74t-9.25,9a80.63,80.63,0,0,1-9.74,7.43,42.72,42.72,0,0,1-8.94,4.63,19.84,19.84,0,0,1-6.25,1.27,9.38,9.38,0,0,1-3.83-.68,6.58,6.58,0,0,1-2.47-1.83,7.16,7.16,0,0,1-1.31-2.56,10.88,10.88,0,0,1-.39-2.89A14,14,0,0,1,99.74,70a15.16,15.16,0,0,1,1.66-3.81q1.32-2.19,3.32-5.37c1.34-2.11,2.76-4.42,4.28-6.93s3-5.15,4.56-7.93,2.91-5.57,4.13-8.35a66.22,66.22,0,0,0,3-8.18,27.27,27.27,0,0,0,1.14-7.42,14.71,14.71,0,0,0-1.49-6.45A16.54,16.54,0,0,0,115.93,10a23,23,0,0,0-7.15-3.93A29.77,29.77,0,0,0,99,4.61a37.9,37.9,0,0,0-9.59,1.2A39.85,39.85,0,0,0,80.7,9.15a37,37,0,0,0-7.4,5.16,35,35,0,0,0-5.74,6.59,31.16,31.16,0,0,0-3.71,7.66,27,27,0,0,0-1.31,8.38,19,19,0,0,0,1.29,7.25,15.09,15.09,0,0,0,3.49,5.25,14.67,14.67,0,0,0,5.08,3.17,17.1,17.1,0,0,0,6,1.08,19.26,19.26,0,0,0,6.89-1.32,27.48,27.48,0,0,0,6.76-3.81,40,40,0,0,0,6.32-6A55.8,55.8,0,0,0,104,34.59Zm55.08-7q1.67-2.78,2.71-5a36.73,36.73,0,0,0,1.64-3.9,18.69,18.69,0,0,0,.8-3,13.39,13.39,0,0,0,.22-2.27,7.85,7.85,0,0,0-.1-1.24,4,4,0,0,0-.36-1.22,2.45,2.45,0,0,0-.73-.91,2.17,2.17,0,0,0-2.86.47,7.06,7.06,0,0,0-1.27,2.15,14.39,14.39,0,0,0-.83,3.12,23.19,23.19,0,0,0-.29,3.83,31.52,31.52,0,0,0,.24,3.76A30.2,30.2,0,0,0,161.07,28.78Z"/><path class="cls-5" d="M77.65,69.71a7.4,7.4,0,0,0-2.15-4.34.55.55,0,0,0-.21-.36c-2.15-1.63-5.26-3.63-5.07-6.75a3.42,3.42,0,0,1,2.21-3,2.76,2.76,0,0,1,2,.13,2.33,2.33,0,0,0-2.35,2.49A2.4,2.4,0,0,0,76.49,59c1.34-2.17-.42-4.81-2.28-5.95a7.53,7.53,0,0,0-7.3-.26,5.58,5.58,0,0,0-2.22,2.14c.6-3.26,2.92-6,3.56-9.3s-.36-6.3-3.48-7.58a16.28,16.28,0,0,0-5-.9l-.23,0a34.87,34.87,0,0,0-5-.25h0l-1.34,0c-1.28,0-2.57,0-3.86,0A7.26,7.26,0,0,0,50.77,36,5.54,5.54,0,0,0,53,31.4a4.09,4.09,0,0,0-2.69-3.61,3,3,0,0,0-3.9,1.61,2.09,2.09,0,0,0,2.32,2.78c.63-.12.36-1.08-.27-1a1.06,1.06,0,0,1-1.16-.83,1.39,1.39,0,0,1,.56-1.34,2.28,2.28,0,0,1,2.58-.12,3.41,3.41,0,0,1,1,4.71c-1.23,2.28-3.63,3-6.13,3.16A8.24,8.24,0,0,1,40,34.73c-1.39-1.4-1.95-3.84-.39-5.34a2.6,2.6,0,0,1,2.6-.69,1.72,1.72,0,0,1,1.19,1.4,1.08,1.08,0,0,1-1.19,1.12c-.63-.12-.9.84-.27,1a2.08,2.08,0,0,0,2.43-2.31,2.87,2.87,0,0,0-2.92-2.29A4,4,0,0,0,38,29.88a4.78,4.78,0,0,0,.29,4.26,6.12,6.12,0,0,0,2.93,2.68h-.7a73.46,73.46,0,0,0-12.32.6A7.88,7.88,0,0,0,24,39.27a6,6,0,0,0-1.7,4.08c-.19,3.84,2.38,6.89,3.46,10.4.11.36.2.74.28,1.13a5.46,5.46,0,0,0-1.32-1.52,7.36,7.36,0,0,0-7.26-.81c-2.11.9-4.07,3-3.58,5.49.44,2.18,3.62,2.87,4.55.65a2.38,2.38,0,0,0-2.15-3.32,2.76,2.76,0,0,1,2-.13,3.42,3.42,0,0,1,2.21,3c.18,3.12-2.92,5.12-5.07,6.75a.49.49,0,0,0-.2.31,7.31,7.31,0,0,0-1.64,2.4,7.52,7.52,0,0,0,1.54,8.17A7.25,7.25,0,0,0,23,77.14a22.21,22.21,0,0,1-2.24,7.32.52.52,0,0,0,.3.74,8.51,8.51,0,0,0,3.43.49.42.42,0,0,0,.16,0,.44.44,0,0,0,.45-.35c1.66-6.12,4.29-15.23,12.08-15.47l1,.14c1,.13,2.08.22,3.12.28h.26a73,73,0,0,0,7.83,0,.33.33,0,0,0,.17,0q2-.12,3.87-.39C61.3,70,64,79.14,65.63,85.3a.44.44,0,0,0,.44.35.47.47,0,0,0,.17,0,8.51,8.51,0,0,0,3.43-.49.52.52,0,0,0,.3-.74,22.16,22.16,0,0,1-2.24-7.31A7.37,7.37,0,0,0,74.1,77,7.17,7.17,0,0,0,77.65,69.71Zm-2.6-10.77a1.36,1.36,0,0,1-1.92-1.53,1.4,1.4,0,0,1,2.49-.48.45.45,0,0,0,.29.16A1.68,1.68,0,0,1,75.05,58.94Zm-7.86-5.18a6.47,6.47,0,0,1,6.31,0,5.1,5.1,0,0,1,.69.45,3.77,3.77,0,0,0-1.46-.08A4.23,4.23,0,0,0,69.48,57c-.79,2.19.08,4,1.48,5.63-1-.38-2.06-.7-3-1.14a9.85,9.85,0,0,1-2.13-1.53,3.61,3.61,0,0,1-.61-.83A4.45,4.45,0,0,1,67.19,53.76Zm-2.62,6.31a20.39,20.39,0,0,0-4.81.06c-3,.25-6,.34-9,.39-6.16.11-12.33.16-18.48-.28a27.37,27.37,0,0,0-6.2-.18A4.92,4.92,0,0,0,26.69,59a7.07,7.07,0,0,1,4.16-.64c1.55.11,3.1.29,4.65.38,3.32.21,6.65.24,10,.21s6.62-.05,9.92-.24c1.48-.08,3-.24,4.44-.35A7,7,0,0,1,64,59,5.66,5.66,0,0,0,64.57,60.07ZM23.83,62l.36-.21,0,0c2.27-1.3,5.09-.72,7.57-.54,2.92.23,5.84.34,8.76.38,5.79.08,11.62,0,17.4-.32,2.59-.16,5.65-.87,8.1.3a10.74,10.74,0,0,0,1.28.72c-.75.06-1.5.22-2.24.33-1.62.24-3.24.44-4.87.62q-4.77.51-9.57.61a170.93,170.93,0,0,1-19.07-.53c-1.82-.17-3.63-.37-5.43-.62-.92-.13-1.89-.35-2.84-.42Zm.38-14.09a9.3,9.3,0,0,1-.84-5.49,4.8,4.8,0,0,1,3.36-3.6A4.93,4.93,0,0,0,25.2,41c-1.7,4.7,2.91,8.58,3.84,12.87.14.63,1.1.36,1-.27A20.71,20.71,0,0,0,27.53,48c-1-1.84-2-3.93-1.57-6.09.51-2.56,2.88-3.51,5.41-3.87L32.86,38q3.35-.2,6.7-.2c1.92,0,4,.17,6,0,.79.06,1.58.06,2.33.05,2.22,0,4.44,0,6.66,0h.07c1.59,0,3.17.11,4.75.23,2.5.37,4.82,1.33,5.33,3.86.42,2.11-.51,4.15-1.5,6a21.75,21.75,0,0,0-2.55,5.65c-.13.63.83.9,1,.27.93-4.29,5.54-8.17,3.84-12.87a5,5,0,0,0-1.56-2.19,5.49,5.49,0,0,1,2.19,1.3,5.81,5.81,0,0,1,1.2,5.15C66.62,49,63.81,52,63.56,55.91a7.74,7.74,0,0,0,.08,1.8,12.09,12.09,0,0,0-5.33-.24c-2.7.25-5.41.34-8.12.4a162,162,0,0,1-16.64-.3c-2.15-.17-4.47-.62-6.51.14C27.65,54.19,25.54,51,24.21,47.88Zm-6.69,9.4A1.37,1.37,0,0,1,15.76,59a1.67,1.67,0,0,1-1-1.91.45.45,0,0,0,.29-.16A1.41,1.41,0,0,1,17.52,57.28ZM21.2,57A4.23,4.23,0,0,0,18,54.15a3.77,3.77,0,0,0-1.46.08,5.71,5.71,0,0,1,.68-.45,6.54,6.54,0,0,1,6.21-.09A4.48,4.48,0,0,1,25.5,59.1a4.15,4.15,0,0,1-.61.82,10,10,0,0,1-2.12,1.52c-.53.24-1.08.44-1.62.63s-1,.36-1.46.55C21.1,61,22,59.16,21.2,57Zm3,27.74a7.67,7.67,0,0,1-2.34-.29A23.53,23.53,0,0,0,24,76.52,6.37,6.37,0,0,0,26,68.6c-.27-.58-1.13-.08-.86.5A5.38,5.38,0,0,1,21,76.7a6,6,0,0,1-6.89-4.49c-.93-3.92,1.78-7,5.2-8.41l.6-.24A4.29,4.29,0,0,0,18.83,66a4.93,4.93,0,0,0-3,3.47A4.48,4.48,0,0,0,22,74.7c1.71-.8,2.83-3,1.62-4.69a2.15,2.15,0,0,0-3.89.74c-.1.63.86.9,1,.27a1.14,1.14,0,0,1,2-.57,2,2,0,0,1-.13,2.6,3.35,3.35,0,0,1-4.34.48,3.66,3.66,0,0,1-1.27-4.2,4.86,4.86,0,0,1,3.33-2.76c3.33-1,6.77.77,9.9,1.7q2,.62,4.11,1C28.21,71.32,25.75,78.94,24.18,84.7ZM37.53,68.88a.48.48,0,0,0-.24-.06h-.12l-.76-.11a47,47,0,0,1-5.23-1.18C29,66.92,27,66.06,24.76,65.59a10.85,10.85,0,0,0-4.87.09,3.93,3.93,0,0,1,1.67-2.3h0c1.49-.42,3.21.13,4.71.33s3,.37,4.51.52c3,.29,6.08.48,9.13.58a152.76,152.76,0,0,0,18.53-.4c1.75-.16,3.5-.37,5.24-.6.83-.11,1.65-.23,2.48-.36a6.81,6.81,0,0,1,2.91-.07h0a3.88,3.88,0,0,1,1.67,2.31,8.9,8.9,0,0,0-3.53-.32,36.36,36.36,0,0,0-6.46,1.77,49.8,49.8,0,0,1-5.28,1.35c-.66.13-1.33.24-2,.33h-.13a.43.43,0,0,0-.24.06c-1.37.19-2.73.31-4.11.39s-2.61.09-3.91.09-2.55,0-3.82-.11S38.78,69.05,37.53,68.88Zm33.26,7.9a5.42,5.42,0,0,1-5.2-7.68c.27-.57-.59-1.08-.87-.5a6.39,6.39,0,0,0,1.94,7.93,23.72,23.72,0,0,0,2.18,7.88,7.71,7.71,0,0,1-2.34.29c-1.57-5.76-4-13.4-10.1-15.39Q58,69,59.55,68.56c3.13-.88,6.47-2.63,9.8-2.21a5.75,5.75,0,0,1,3.84,2,3.71,3.71,0,0,1,.17,4.31,3.38,3.38,0,0,1-4.69.88,2.21,2.21,0,0,1-.89-2.73A1.16,1.16,0,0,1,70,71c.11.63,1.07.36,1-.27a2.13,2.13,0,0,0-3.51-1.16A3,3,0,0,0,67.72,74a4.41,4.41,0,0,0,4.66.69A4.53,4.53,0,0,0,75,70.57a4.85,4.85,0,0,0-3.12-4.48,4.22,4.22,0,0,0-1-2.45c2.72,1.13,5.29,2.72,5.82,5.93A6.07,6.07,0,0,1,70.79,76.78Z"/><path class="cls-6" d="M35.48,50a1.27,1.27,0,1,0-1.27-1.27A1.27,1.27,0,0,0,35.48,50Z"/><path class="cls-7" d="M45.34,50a1.27,1.27,0,1,0-1.27-1.27A1.27,1.27,0,0,0,45.34,50Z"/><path class="cls-8" d="M55.2,50a1.27,1.27,0,1,0-1.27-1.27A1.26,1.26,0,0,0,55.2,50Z"/><path class="cls-4" d="M136.64,75.43c1.53.07,3,.11,4.47.11,2.94,0,5.24-.07,6.9-.23a24.4,24.4,0,0,0,3.58-.68L153,69.12h1.52q-.59,4.42-.91,8.28a37.55,37.55,0,0,1-5.77.35l-11.16-.19q-2.25,0-7,.26V76.57c1.25-.54,2-1.13,2.21-1.75s.34-3.1.34-7.43V54.5q0-7-.34-7.84c-.22-.54-.86-.81-1.91-.81h-2.55V44.37c3.72.11,6.18.17,7.4.17q2.44,0,6.61-.17v1.48h-2.9c-.83,0-1.36.24-1.57.71s-.33,2.46-.33,5.94V67.43l.07,6.61Z"/><path class="cls-4" d="M159.78,45.85V44.37q4.8.16,7,.17t6.75-.17v1.48H171.8c-1.47,0-2.35.28-2.65.84s-.44,3.11-.44,7.64v9.19a29.81,29.81,0,0,0,.55,7,5.79,5.79,0,0,0,2.85,3.33,12,12,0,0,0,6.14,1.36,14,14,0,0,0,6.68-1.46,6,6,0,0,0,2.74-3.13q.87-2.11.87-8V53.75c0-4.1-.19-6.44-.55-7s-1.38-.88-3-.88h-1.22V44.37q4.86.16,6.18.17c1.42,0,3.19-.06,5.31-.17v1.48h-1.61c-1.24,0-2,.33-2.39,1s-.53,3-.53,7v8.79a36.13,36.13,0,0,1-.59,8.12,9.26,9.26,0,0,1-2.18,3.79,11.09,11.09,0,0,1-4.22,2.67,17.89,17.89,0,0,1-6.2,1,21.23,21.23,0,0,1-6.45-.88,11.11,11.11,0,0,1-4.16-2.16,7.39,7.39,0,0,1-2-3.16,22.19,22.19,0,0,1-.62-6.34l0-4.45V54.05q0-6.6-.38-7.4c-.26-.54-1.09-.8-2.48-.8Z"/><path class="cls-4" d="M213.66,61l-3.51-5.83a39.57,39.57,0,0,0-5.39-7.57,3.49,3.49,0,0,0-2.41-1.08,14.64,14.64,0,0,0-1.48.12V45.15L207.76,44a12.61,12.61,0,0,1,2,2q.81,1,2.85,4.49l4,6.72,8.77-12.86h4.87v1.45h-.91a2.92,2.92,0,0,0-1.49.32,26.39,26.39,0,0,0-3.18,3.72q-5,6.42-7,9.24l7.75,12.41a30.71,30.71,0,0,0,2.89,4.26,2.35,2.35,0,0,0,1.58.48h1v1.47c-1.81-.11-3.2-.16-4.15-.16a26.32,26.32,0,0,0-2.91.16l-8.9-14.81q-1.81,2.5-5.11,7.62C207.5,74,206,76.35,205.3,77.72a15.1,15.1,0,0,0-2.2-.16,26,26,0,0,0-2.81.16V76.25h1.05a2.21,2.21,0,0,0,1.57-.57q.61-.56,5.13-6.87Z"/><path class="cls-4" d="M245.48,61.79v5.75l0,3.31c0,2.06,0,3.57.07,4.53q3.44.25,7.35.26a33.92,33.92,0,0,0,4.41-.24,10.57,10.57,0,0,0,2.45-.61q.59-2.06,1.19-5.15h1.55q-.63,5.14-.63,6.86l0,1.06c-1.79.16-3.56.23-5.29.23L253,77.72c-4.07-.11-7.05-.16-9-.16s-4.25,0-7.28.16V76.25h.72a5.14,5.14,0,0,0,2.57-.4,2.83,2.83,0,0,0,.7-1.88q.18-1.47.18-6.51V54.59c0-2.11,0-3.84-.16-5.18a11.43,11.43,0,0,0-.32-2.4,1.37,1.37,0,0,0-.51-.6,6.53,6.53,0,0,0-2-.37l-1.81-.19V44.37h2.53l2.49.08c1.39.06,2.44.09,3.16.09l9-.14,4.27,0c1.45,0,2.92,0,4.4.17a26.17,26.17,0,0,0-1,7.24h-1.59a29.81,29.81,0,0,0-.26-4.29,19.54,19.54,0,0,0-6.8-1q-3.21,0-6.73.28c0,1.46,0,2.93,0,4.4l-.05,3.6v4.75c1.55.11,2.91.16,4.1.16q5.58,0,6.32-.38c.49-.26.74-1.06.74-2.41V55.34h1.59c-.11,2.36-.16,4.24-.16,5.65s.05,3.23.16,5.25h-1.59V64.88c0-1.5-.3-2.42-.88-2.75s-2.65-.51-6.2-.51C248.25,61.62,246.89,61.68,245.48,61.79Z"/></g></g></svg>