<svg xmlns="http://www.w3.org/2000/svg" viewBox="0 0 23.02 30"><defs><style>.cls-1{fill:#07043a;}</style></defs><title>panier</title><g id="Calque_2" data-name="Calque 2"><g id="Calque_1-2" data-name="Calque 1"><path class="cls-1" d="M22.06,8.82H18.57V4.71A4.71,4.71,0,0,0,13.86,0h-.29a4.59,4.59,0,0,0-2.06.48A4.59,4.59,0,0,0,9.45,0a4.71,4.71,0,0,0-4.7,4.71V8.82H1L0,30H23ZM13.83,1.69a3,3,0,0,1,3,3V8.82H14.16V4.71a4.69,4.69,0,0,0-1-2.91S13.24,1.69,13.83,1.69Zm-2.32.92a2.91,2.91,0,0,1,.88,2.1V8.82H10.63V4.71A3,3,0,0,1,11.51,2.61Zm-5,2.1A3,3,0,0,1,9.45,1.76a3,3,0,0,1,.43,0,4.64,4.64,0,0,0-1,2.91V8.82H6.51ZM2.65,10.59h2.1V28.24H1.85ZM6.51,28.24V10.59H8.86v1.76h1.77V10.59h6.18v1.76h1.76V10.59h1.8l.81,17.65Z"/></g></g></svg>