<svg xmlns="http://www.w3.org/2000/svg" viewBox="0 0 34.84 34.84"><defs><style>.cls-1{fill:#07043a;}</style></defs><title>twitter</title><g id="Calque_2" data-name="Calque 2"><g id="Calque_1-2" data-name="Calque 1"><path class="cls-1" d="M17.42,0A17.42,17.42,0,1,0,34.84,17.42,17.42,17.42,0,0,0,17.42,0Zm8,13.58c0,.17,0,.35,0,.52A11.29,11.29,0,0,1,14,25.47h0a11.35,11.35,0,0,1-6.13-1.79,7.46,7.46,0,0,0,1,.05,8,8,0,0,0,5-1.71,4,4,0,0,1-3.74-2.77,4.77,4.77,0,0,0,.76.07,4.09,4.09,0,0,0,1-.14,4,4,0,0,1-3.21-3.92v0a4,4,0,0,0,1.81.5,4,4,0,0,1-1.78-3.33,3.93,3.93,0,0,1,.55-2,11.34,11.34,0,0,0,8.24,4.18,4,4,0,0,1,6.81-3.65,8,8,0,0,0,2.54-1,4,4,0,0,1-1.76,2.21,8.08,8.08,0,0,0,2.3-.63A8.2,8.2,0,0,1,25.37,13.58Z"/></g></g></svg>